<svg width="430" height="430" viewBox="0 0 430 430" fill="none" xmlns="http://www.w3.org/2000/svg">
<path d="M270.7 187.6L278.7 194.1L311.1 220.6H348.6" stroke="#08A88A" stroke-width="12" stroke-miterlimit="10" stroke-linecap="round" stroke-linejoin="round"/>
<path d="M348.6 191.5H323.2L259.8 143.2L228.8 177.1L195 214.1" stroke="#08A88A" stroke-width="12" stroke-miterlimit="10" stroke-linecap="round" stroke-linejoin="round"/>
<path d="M107.9 322.1V375H255.1H308.2H348.6V220.6V191.5V55H107.9V283.8" stroke="#121331" stroke-width="12" stroke-miterlimit="10" stroke-linecap="round" stroke-linejoin="round"/>
<path d="M278.7 194.1L238.9 243" stroke="#08A88A" stroke-width="12" stroke-miterlimit="10" stroke-linecap="round" stroke-linejoin="round"/>
<path d="M228.8 177.1H192.9L164 209.8C155.4 219.5 140.6 220.6 130.7 212.1L127.9 209.7L184.9 143.2H259.8H259.9" stroke="#08A88A" stroke-width="12" stroke-miterlimit="10" stroke-linecap="round" stroke-linejoin="round"/>
<path d="M237.3 241.9L275.8 271.8C284.4 278.5 289.4 288.7 289.4 299.6V348.3L308.4 375.2H255.1V301.3L206.8 273.7" stroke="#121331" stroke-width="12" stroke-miterlimit="10" stroke-linecap="round" stroke-linejoin="round"/>
<path d="M238.9 243L166.3 312.4C159.8 318.7 151.1 322.1 142 322.1H50C50 300.9 67.2 283.7 88.4 283.7H144.5L195 214L238.9 243Z" stroke="#121331" stroke-width="12" stroke-miterlimit="10" stroke-linecap="round" stroke-linejoin="round"/>
<path d="M300.9 145.4L284.8 134.1C277.4 128.9 275.5 118.6 280.7 111.2L295.2 90.5001C300.4 83.1001 310.7 81.2001 318.1 86.4001L320.8 88.3001C328.2 93.5001 330.1 103.8 324.9 111.2L300.9 145.4Z" stroke="#121331" stroke-width="12" stroke-miterlimit="10" stroke-linecap="round" stroke-linejoin="round"/>
<path d="M289.4 348.3H255.1" stroke="#121331" stroke-width="12" stroke-miterlimit="10" stroke-linecap="round" stroke-linejoin="round"/>
<path d="M93.5 283.8V322.1" stroke="#121331" stroke-width="12" stroke-miterlimit="10" stroke-linecap="round" stroke-linejoin="round"/>
</svg>
