<svg xmlns="http://www.w3.org/2000/svg" width="430" height="430" fill="none" viewBox="0 0 430 430"><g stroke-linecap="round" stroke-linejoin="round" stroke-width="6"><path stroke="#121331" d="M326.92 214.52c0 62.08-50.32 112.4-112.4 112.4s-112.4-50.32-112.4-112.4 50.32-112.4 112.4-112.4 112.4 50.33 112.4 112.4m58.07 0c0 94.14-76.32 170.46-170.46 170.46S44.06 308.67 44.06 214.52 120.38 44.06 214.52 44.06s170.47 76.32 170.47 170.46"/><path stroke="#000" d="M318.7 256.98c5.56-13.67 8.37-28.31 8.28-43.06-.09-14.77-3.09-29.35-8.82-42.96l53.5-22.57c8.7 20.63 13.25 42.78 13.39 65.16.14 22.39-4.12 44.58-12.56 65.32zm-61.72-146.63a112.5 112.5 0 0 0-43.06-8.28c-14.77.09-29.35 3.09-42.96 8.82l-22.57-53.5c20.63-8.7 42.78-13.25 65.16-13.39 22.39-.14 44.58 4.12 65.32 12.56zm-146.63 61.72a112.5 112.5 0 0 0-8.28 43.06c.09 14.77 3.09 29.35 8.82 42.96l-53.5 22.57A170.7 170.7 0 0 1 44 215.5c-.14-22.39 4.12-44.58 12.56-65.32zm61.72 146.63c13.67 5.56 28.31 8.37 43.06 8.28 14.77-.09 29.35-3.09 42.96-8.82l22.57 53.5a170.5 170.5 0 0 1-65.16 13.39c-22.39.14-44.58-4.12-65.32-12.56z"/></g></svg>