<svg xmlns="http://www.w3.org/2000/svg" viewBox="0 0 1200 1000" id="ecommerce">
    <path d="M862.862 333.136c8.28-53.814 36.074-93.633 74.118-114.528s86.537-22.866 136.409-.788c-16.559 107.628-110.98 159.274-210.527 115.316Z" fill="#199180"></path>
    <path d="m873.901 326.04 183.324-99.744c.197 0 .394 0 .394.197s0 .394-.197.394L874.492 327.42a.72.72 0 0 1-.985-.395c-.197-.197 0-.788.394-.985Z" fill="#fff"></path>
    <path d="M979.953 268.874a53.615 53.615 0 0 1 16.755 1.38 39.12 39.12 0 0 1 8.082 2.76 39.944 39.944 0 0 1 7.49 4.14c.395.197.395.788.198 1.182s-.789.394-1.183.197a42.633 42.633 0 0 0-7.096-4.336 61.518 61.518 0 0 0-7.688-2.957 52.261 52.261 0 0 0-16.558-1.971c0-.197-.197-.197 0-.395ZM924.167 299.428a52.824 52.824 0 0 0 7.294-14.98 53.478 53.478 0 0 0 1.774-8.083 38.777 38.777 0 0 0 .197-8.28.788.788 0 1 1 1.577.001 40.906 40.906 0 0 1-.591 8.476 42.78 42.78 0 0 1-2.169 8.28 48.292 48.292 0 0 1-8.082 14.586c.197.197 0 .197 0 0ZM904.85 309.876a53.615 53.615 0 0 1 16.755 1.38 39.122 39.122 0 0 1 8.082 2.76 39.944 39.944 0 0 1 7.49 4.139c.395.197.395.788.197 1.183s-.788.394-1.182.197a42.632 42.632 0 0 0-7.097-4.337 61.512 61.512 0 0 0-7.688-2.957 52.26 52.26 0 0 0-16.558-1.97v-.395ZM1008.141 253.499a52.823 52.823 0 0 0 7.294-14.981 53.477 53.477 0 0 0 1.774-8.082 38.777 38.777 0 0 0 .197-8.28.788.788 0 1 1 1.577 0 40.906 40.906 0 0 1-.591 8.477 42.78 42.78 0 0 1-2.169 8.279 48.293 48.293 0 0 1-8.082 14.587c.197.197 0 .197 0 0Z" fill="#fff"></path>
    <path d="M862.862 333.136c-22.866-49.477-21.683-97.97-1.38-136.408s59.728-66.825 113.346-75.892c45.535 98.955-4.534 193.968-111.966 212.3Z" fill="#2ab19f"></path>
    <path d="m868.185 321.112 97.97-184.31c0-.196.196-.196.393-.196s.198.197.198.394l-97.182 184.9a.72.72 0 0 1-.985.394.948.948 0 0 1-.394-1.182Z" fill="#fff"></path>
    <path d="M925.153 215.06a51.32 51.32 0 0 1 14.784-8.082 36.445 36.445 0 0 1 8.28-2.168 40.903 40.903 0 0 1 8.475-.592.788.788 0 0 1 0 1.577 38.78 38.78 0 0 0-8.279.198 53.48 53.48 0 0 0-8.082 1.774 51.485 51.485 0 0 0-15.178 7.293ZM895.387 271.24a52.42 52.42 0 0 0-2.168-16.558 44.461 44.461 0 0 0-2.957-7.688 40.816 40.816 0 0 0-4.337-6.9.848.848 0 0 1 1.38-.985 46.45 46.45 0 0 1 4.337 7.49 39.117 39.117 0 0 1 2.76 8.083 53.778 53.778 0 0 1 1.577 16.755c-.394-.197-.394-.197-.592-.197ZM885.137 290.558a51.32 51.32 0 0 1 14.784-8.082 36.445 36.445 0 0 1 8.28-2.169 40.903 40.903 0 0 1 8.476-.59.788.788 0 0 1 0 1.576 38.78 38.78 0 0 0-8.28.197 53.48 53.48 0 0 0-8.082 1.774 67.416 67.416 0 0 0-15.178 7.294ZM940.134 186.477a52.42 52.42 0 0 0-2.168-16.558 44.462 44.462 0 0 0-2.957-7.688 40.817 40.817 0 0 0-4.337-6.899.848.848 0 0 1 1.38-.985 46.452 46.452 0 0 1 4.337 7.49 39.117 39.117 0 0 1 2.76 8.082 53.778 53.778 0 0 1 1.576 16.756c-.394 0-.394 0-.59-.198Z" fill="#fff"></path>
    <path d="M863.06 332.94c39.424-37.651 85.747-52.238 128.523-45.536 42.972 6.702 82.397 34.693 108.417 82.594-78.652 75.3-184.9 58.742-236.94-37.059Z" fill="#48dbc5"></path>
    <path d="m876.07 334.122 205.992 32.92c.197 0 .394.196.197.393 0 .198-.197.395-.394.198l-205.993-31.934a.69.69 0 0 1-.591-.986.88.88 0 0 1 .788-.591Z" fill="#fff"></path>
    <path d="M994.934 353.637a56.277 56.277 0 0 1 12.419 11.236 44.447 44.447 0 0 1 4.73 7.096 47.4 47.4 0 0 1 3.352 7.885.75.75 0 0 1-1.38.592 36.43 36.43 0 0 0-2.957-7.688 42.632 42.632 0 0 0-4.337-7.097 52.7 52.7 0 0 0-11.827-12.024ZM932.25 343.78a48.582 48.582 0 0 0 14.98-7.49 40.973 40.973 0 0 0 6.308-5.322 41.395 41.395 0 0 0 5.126-6.505c.197-.394.788-.394 1.182-.197s.395.788.197 1.182a59.907 59.907 0 0 1-5.519 6.505 44.182 44.182 0 0 1-6.702 5.323 49.127 49.127 0 0 1-15.376 6.899c-.197-.197-.197-.197-.197-.394ZM910.566 340.233a56.276 56.276 0 0 1 12.418 11.236 44.446 44.446 0 0 1 4.731 7.096 47.4 47.4 0 0 1 3.351 7.885.75.75 0 0 1-1.38.591 36.431 36.431 0 0 0-2.956-7.688 42.633 42.633 0 0 0-4.337-7.096 75.887 75.887 0 0 0-11.827-12.024ZM1026.67 358.565a48.582 48.582 0 0 0 14.982-7.49 40.973 40.973 0 0 0 6.308-5.323 41.395 41.395 0 0 0 5.125-6.505c.197-.394.789-.394 1.183-.197s.394.788.197 1.183a59.907 59.907 0 0 1-5.52 6.505 44.182 44.182 0 0 1-6.702 5.322 49.126 49.126 0 0 1-15.375 6.9c-.197-.198-.197-.198-.197-.395Z" fill="#fff"></path>
    <path d="M876.464 163.414v700.572a15.185 15.185 0 0 1-15.179 15.178H260.063a15.06 15.06 0 0 1-15.178-15.178V163.414a15.185 15.185 0 0 1 15.178-15.178h601.42a15.144 15.144 0 0 1 14.98 15.178Z" fill="#c8e1ff"></path>
    <path d="M271.693 212.3h577.765v642.421H271.693z" fill="#fff"></path>
    <path d="M772.975 663.316a7.178 7.178 0 0 1-1.774 4.533 6.245 6.245 0 0 1-4.534 1.774H354.485a6.227 6.227 0 0 1-6.308-6.307 7.178 7.178 0 0 1 1.774-4.534 6.245 6.245 0 0 1 4.534-1.774h412.182a6.227 6.227 0 0 1 6.308 6.308ZM723.694 699.783a7.178 7.178 0 0 1-1.774 4.534 6.245 6.245 0 0 1-4.534 1.774H403.765a6.227 6.227 0 0 1-6.308-6.308 7.178 7.178 0 0 1 1.774-4.534 6.245 6.245 0 0 1 4.534-1.774h313.621a6.227 6.227 0 0 1 6.308 6.308ZM671.26 736.25a7.178 7.178 0 0 1-1.774 4.535 6.245 6.245 0 0 1-4.534 1.774H456.2a6.227 6.227 0 0 1-6.308-6.308 7.178 7.178 0 0 1 1.774-4.534 6.245 6.245 0 0 1 4.534-1.774h208.555a6.395 6.395 0 0 1 6.505 6.308Z" fill="#f0f4f9"></path>
    <path d="M760.556 180.564a11.947 11.947 0 0 1-12.025 12.024 12.024 12.024 0 1 1 12.025-12.024ZM835.66 180.564a12.024 12.024 0 0 1-24.05 0 12.024 12.024 0 0 1 24.05 0ZM798.206 180.564a11.947 11.947 0 0 1-12.024 12.024 12.024 12.024 0 1 1 12.024-12.024Z" fill="#fff"></path>
    <path d="M318.214 248.768H197.773l71.752-36.468h96.59l-47.901 36.468z" fill="#fdd333"></path>
    <path d="M438.853 248.768H318.214l47.901-36.468h96.787l-24.049 36.468z" fill="#fa5814"></path>
    <path d="M559.491 248.768H438.853l24.049-36.468h96.589v36.468z" fill="#fdd333"></path>
    <path d="M680.13 248.768H559.491V212.3h96.59l24.049 36.468z" fill="#fa5814"></path>
    <path d="M800.769 248.768H680.13L656.081 212.3h96.787l47.901 36.468z" fill="#fdd333"></path>
    <path d="M921.21 248.768H800.769L752.868 212.3h96.59l71.752 36.468z" fill="#fa5814"></path>
    <path d="M318.214 248.768v12.419a60.32 60.32 0 0 1-60.32 60.319c-33.313 0-60.121-23.458-60.121-56.771v-15.967Z" fill="#fcc800"></path>
    <path d="M438.853 248.768v12.419a60.32 60.32 0 1 1-120.639 0v-12.419Z" fill="#e44000"></path>
    <path d="M559.491 248.768v12.419a60.32 60.32 0 0 1-120.638 0v-12.419Z" fill="#fcc800"></path>
    <path d="M680.13 248.768v12.419a60.32 60.32 0 0 1-120.639 0v-12.419Z" fill="#e44000"></path>
    <path d="M800.769 248.768v12.419a60.32 60.32 0 0 1-120.639 0v-12.419Z" fill="#fcc800"></path>
    <path d="M921.407 248.768v12.419a60.32 60.32 0 0 1-120.638 0v-12.419Z" fill="#e44000"></path>
    <path d="M367.297 676.917v66.43a3.032 3.032 0 0 1-2.956 2.957H102.957a3.032 3.032 0 0 1-2.957-2.957v-66.43a3.032 3.032 0 0 1 2.957-2.957H364.34a3.032 3.032 0 0 1 2.956 2.957ZM347.388 746.304V871.87a7.067 7.067 0 0 1-7.096 7.096H127.006a7.067 7.067 0 0 1-7.097-7.096V746.304Z" fill="#48dbc5"></path>
    <g opacity=".15">
        <path d="m171.752 746.304-51.843 51.843v-11.039l40.805-40.804h11.038z" fill="#131514"></path>
    </g>
    <g opacity=".15">
        <path d="M225.172 746.304 119.909 851.567v-11.039l94.422-94.224h10.841z" fill="#131514"></path>
    </g>
    <g opacity=".15">
        <path d="M278.79 746.304 145.929 878.967h-10.841l132.663-132.663h11.039z" fill="#131514"></path>
    </g>
    <g opacity=".15">
        <path d="M332.21 746.304 199.547 878.967h-11.039l132.86-132.663h10.842z" fill="#131514"></path>
    </g>
    <g opacity=".15">
        <path d="M347.388 773.704v11.039l-94.421 94.224h-10.842l105.263-105.263z" fill="#131514"></path>
    </g>
    <g opacity=".15">
        <path d="M347.388 827.321v10.842l-40.804 40.804h-11.039l51.843-51.646z" fill="#131514"></path>
    </g>
    <g opacity=".15">
        <path d="m295.545 746.304 51.843 51.843v-11.039l-40.804-40.804h-11.039z" fill="#131514"></path>
    </g>
    <g opacity=".15">
        <path d="m241.928 746.304 105.46 105.263v-11.039l-94.421-94.224h-11.039z" fill="#131514"></path>
    </g>
    <g opacity=".15">
        <path d="m188.508 746.304 132.86 132.663h10.842L199.547 746.304h-11.039z" fill="#131514"></path>
    </g>
    <g opacity=".15">
        <path d="m134.891 746.304 132.86 132.663h11.039L145.929 746.304h-11.038z" fill="#131514"></path>
    </g>
    <g opacity=".15">
        <path d="M119.909 773.704v11.039l94.422 94.224h10.841L119.909 773.704z" fill="#131514"></path>
    </g>
    <g opacity=".15">
        <path d="M119.909 827.321v10.842l40.805 40.804h11.038l-51.843-51.646z" fill="#131514"></path>
    </g>
    <path d="M201.518 746.304h64.262v132.86h-64.262zM201.518 673.96h64.262v72.147h-64.262zM234.437 673.96h-14.39c-13.404-26.02-31.933-35.088-46.52-37.847a56.32 56.32 0 0 0-22.867 0 22.25 22.25 0 0 1 4.731-10.25c8.28-10.842 22.866-14.588 35.877-10.448 42.184 13.601 43.17 58.545 43.17 58.545Z" fill="#ff9a05"></path>
    <path d="M195.998 673.96h-17.15c-29.765-13.995-28.188-37.65-28.188-37.65a56.32 56.32 0 0 1 22.867 0c2.562 23.457 22.471 37.65 22.471 37.65Z" fill="#ec8400"></path>
    <path d="M232.86 673.96h14.39c13.404-26.02 31.934-35.088 46.52-37.847a56.32 56.32 0 0 1 22.867 0 22.249 22.249 0 0 0-4.73-10.25c-8.28-10.842-22.867-14.588-35.877-10.448-42.184 13.601-43.17 58.545-43.17 58.545Z" fill="#ff9a05"></path>
    <path d="M271.299 673.96h17.15c29.765-14.193 28.188-37.847 28.188-37.847a56.32 56.32 0 0 0-22.866 0c-2.563 23.654-22.472 37.847-22.472 37.847Z" fill="#ec8400"></path>
    <g opacity=".15">
        <path d="M201.518 746.304h64.262v14.39h-64.262z" fill="#131514"></path>
    </g>
    <g opacity=".15">
        <path d="M265.78 746.304h81.609v14.39H265.78z" fill="#131514"></path>
    </g>
    <g opacity=".15">
        <path d="M119.909 746.304h81.609v14.39h-81.609z" fill="#131514"></path>
    </g>
    <path d="M463.887 603.588a10.948 10.948 0 0 0 10.448 8.279h172.482a10.731 10.731 0 0 0 10.447-8.28l25.429-103.094H438.26Zm159.67-84.763a5.72 5.72 0 0 1 5.716-5.716 5.72 5.72 0 0 1 5.716 5.716v72.344a5.72 5.72 0 0 1-5.716 5.716 5.72 5.72 0 0 1-5.717-5.716Zm-34.3 0a5.717 5.717 0 0 1 11.433 0v72.344a5.717 5.717 0 0 1-11.433 0Zm-34.3 0a5.717 5.717 0 0 1 11.434 0v72.344a5.717 5.717 0 0 1-11.433 0Zm-34.299 0a5.717 5.717 0 0 1 11.433 0v72.344a5.717 5.717 0 0 1-11.433 0Zm-34.299 0a5.717 5.717 0 0 1 11.433 0v72.344a5.717 5.717 0 0 1-11.433 0Zm196.137-48.295H645.83l-53.026-53.026a7.666 7.666 0 0 0-10.842 10.842l41.987 41.987H496.807l41.987-41.987a7.666 7.666 0 0 0-10.842-10.842l-53.026 53.026h-36.665a10.842 10.842 0 0 0 0 21.684h244.037a10.81 10.81 0 0 0 10.842-10.842 10.405 10.405 0 0 0-10.644-10.842Z" fill="#3d84f2"></path>
    <path d="M184.762 460.083c12.813 36.467 52.435 57.362 89.888 47.31a78.614 78.614 0 0 0 19.515-8.28l27.4.197a3.853 3.853 0 0 0 3.745-4.534l-5.125-22.077a74.748 74.748 0 1 0-135.423-12.616Z" fill="#ba93df"></path>
    <path d="M229.115 431.106a10.185 10.185 0 0 1-3.548-7.688 25.733 25.733 0 0 1-.197-3.351c0-.788 0-2.168.197-4.337a10.771 10.771 0 0 1 3.35-7.687q3.253-2.957 8.871-2.957t8.87 2.957a10.88 10.88 0 0 1 3.549 7.687c.197 2.169.197 3.549.197 4.337a25.733 25.733 0 0 1-.197 3.351 10.341 10.341 0 0 1-3.745 7.688 13.63 13.63 0 0 1-8.87 2.76c-3.746 0-6.309-.789-8.477-2.76Zm.986 30.16a1.192 1.192 0 0 1-.592-1.183 1.024 1.024 0 0 1 .394-.789l39.622-52.04a3.347 3.347 0 0 1 1.183-1.183 3.713 3.713 0 0 1 1.577-.394h6.11a2.85 2.85 0 0 1 1.38.394 1.192 1.192 0 0 1 .592 1.183 1.024 1.024 0 0 1-.395.789l-39.621 52.04a3.347 3.347 0 0 1-1.183 1.182 3.713 3.713 0 0 1-1.577.395h-6.11a1.219 1.219 0 0 1-1.38-.395Zm10.25-35.482a5.755 5.755 0 0 0 .985-2.76 25.734 25.734 0 0 0 .198-3.351 24.198 24.198 0 0 0-.197-3.351 4.273 4.273 0 0 0-.986-2.76 2.815 2.815 0 0 0-2.563-.986c-2.168 0-3.35 1.38-3.548 3.943v6.702a5.755 5.755 0 0 0 .986 2.76 2.815 2.815 0 0 0 2.562.985 4.456 4.456 0 0 0 2.563-1.182Zm23.063 33.51a11.926 11.926 0 0 1-3.745-7.687 25.734 25.734 0 0 1-.197-3.352c0-.59 0-1.97.197-4.14a10.97 10.97 0 0 1 3.548-7.884q3.253-2.957 8.87-2.957t8.871 2.957a10.114 10.114 0 0 1 3.351 7.885c.197 2.168.197 3.548.197 4.14a25.733 25.733 0 0 1-.197 3.35 10.88 10.88 0 0 1-3.548 7.688 14.2 14.2 0 0 1-17.347 0Zm11.236-5.322a4.273 4.273 0 0 0 .986-2.76 25.733 25.733 0 0 0 .197-3.35 24.197 24.197 0 0 0-.197-3.352 5.755 5.755 0 0 0-.986-2.76 2.815 2.815 0 0 0-2.562-.985 3.405 3.405 0 0 0-2.563.985 5.755 5.755 0 0 0-.986 2.76v6.702a4.273 4.273 0 0 0 .986 2.76 2.815 2.815 0 0 0 2.563.986 3.405 3.405 0 0 0 2.562-.986Z" fill="#fff"></path>
    <path d="M904.06 870.885a11.93 11.93 0 0 0 .395 2.957 1.92 1.92 0 0 0 1.971 1.577h61.897a1.397 1.397 0 0 0 1.38-1.577l-2.366-10.053-7.294-30.948a2.136 2.136 0 0 0-2.168-1.577l-21.29 2.168a2.08 2.08 0 0 0-1.773 1.774c-.197 3.942-2.168 14.193-17.544 18.53-12.025 3.548-13.601 11.827-13.207 17.15Z" fill="#292561"></path>
    <path d="M925.153 850.384c8.082-4.928 9.462-11.827 9.659-14.98a1.767 1.767 0 0 1 1.774-1.775l21.289-2.168a1.953 1.953 0 0 1 2.168 1.577l4.14 17.74h-39.03Z" fill="#191937"></path>
    <path d="M1000.453 870.885a11.93 11.93 0 0 0 .395 2.957 1.92 1.92 0 0 0 1.97 1.577h61.897a1.397 1.397 0 0 0 1.38-1.577l-2.365-10.053-7.294-30.948a2.136 2.136 0 0 0-2.168-1.577l-21.29 2.168a2.08 2.08 0 0 0-1.774 1.774c-.197 3.942-2.168 14.193-17.543 18.53-12.025 3.548-13.602 11.827-13.208 17.15Z" fill="#292561"></path>
    <path d="M1021.743 850.384c8.082-4.928 9.461-11.827 9.659-14.98a1.767 1.767 0 0 1 1.774-1.775l21.289-2.168a1.953 1.953 0 0 1 2.168 1.577l4.14 17.74h-39.03Z" fill="#191937"></path>
    <path d="M981.53 838.163h-76.484c4.337-73.724 16.559-237.73 27.4-269.072l66.036 9.265c-9.856 46.127-24.837 147.842-25.626 167.948-1.182 26.02 13.996 50.857 8.674 91.859Z" fill="#2624bd"></path>
    <path d="M996.708 838.163c-15.77-79.44-42.972-239.898-41.987-269.86l64.853 1.577c4.14 46.126 8.082 128.918 38.636 208.16 9.856 25.824 11.433 44.944 10.053 60.32h-71.555Z" fill="#464ae4"></path>
    <path d="M914.114 475.064s-20.895 11.039-28.583 9.462-50.857-49.083-50.857-49.083-10.842-36.665-25.429-25.43c-14.39 11.04 17.938 31.54 17.938 31.54s35.68 75.3 59.925 73.724 37.256-11.63 37.256-11.63Z" fill="#ffd1c4"></path>
    <path d="m912.931 472.107 10.25 28.78.986 2.957 10.448-2.76 13.404-3.548 3.154-19.515 1.577-9.66 3.154-19.12c-3.745.986-25.823 13.404-42.973 22.866Z" fill="#ff9a05"></path>
    <path d="m923.182 500.69.985 2.957 10.448-2.76 13.404-3.548 3.154-19.515 1.577-9.66c-3.548-5.322-8.673-8.081-13.207.395-5.125 10.645-10.842 21.486-16.361 32.13Z" fill="#ec8400"></path>
    <path d="M929.292 573.034c0 3.942 92.845 5.322 93.042 1.182 0 0-4.337-16.755-2.168-30.948 1.774-11.039 9.856-24.443 14.98-39.227a52.1 52.1 0 0 0 2.366-7.885c2.76-10.447 3.352-21.486-.788-32.92-4.14-11.235-65.445-27.793-88.31-10.25-4.534 3.549-5.914 18.727-6.506 35.68-.197 3.35-.197 6.702-.197 10.053-.197 10.053-5.52 39.424-9.265 57.954a863.109 863.109 0 0 1-3.154 16.36Z" fill="#ff9a05"></path>
    <path d="M929.292 573.034c0 3.942 92.845 5.322 93.042 1.182 0 0-4.337-16.755-2.168-30.948 1.774-11.039 9.856-24.443 14.98-39.227-2.365-4.73-5.124-9.462-7.884-13.996-1.774-2.76-3.548-5.52-5.125-8.279-1.183-1.971-2.366-4.73-4.928-4.928-4.14-.591-9.462 6.308-12.025 9.068a66.237 66.237 0 0 0-14.98 28.78 61.326 61.326 0 0 0-1.38 17.938c.394 3.942.985 8.082-.198 11.827-2.168 7.294-10.25 11.433-17.938 12.025s-15.178-1.38-22.866-1.972c-5.323-.394-11.039 0-15.573 2.563-1.577 9.265-2.957 15.967-2.957 15.967Z" fill="#ec8400"></path>
    <path d="M1035.935 461.66s10.448 8.279 7.097 32.92-10.645 36.664-10.645 36.664l-35.087-15.77c-.198 0 16.163-50.857 38.635-53.814Z" fill="#ff9a05"></path>
    <path d="M941.908 488.863c-.197 3.35-.197 6.702-.197 10.053l-6.9 1.971a91.704 91.704 0 0 1 7.097-12.024Z" fill="#a61864"></path>
    <path d="m941.711 536.96-28.386-4.14a4.656 4.656 0 0 1-3.942-4.533l-.788-38.045a4.709 4.709 0 0 1 5.322-4.73l28.385 4.14a4.656 4.656 0 0 1 3.943 4.533l.788 38.044a4.63 4.63 0 0 1-5.322 4.731Z" fill="#5b6f8b"></path>
    <path d="M1030.022 530.258s-18.136 50.66-35.68 47.9c-17.346-2.759-52.631-44.352-52.631-44.352s-29.568-17.346-17.15-27.99 23.26 18.529 23.26 18.529l42.58 23.851 12.024-29.962ZM989.217 445.89l1.972-12.419s-14.39 8.082-18.333-2.168c-3.35-8.673-7.096-44.55 8.87-48.098s39.82-5.913 37.848 29.766c-.394 7.096-11.039 15.375-11.039 15.375l.395 21.29c.591 8.278-32.328 6.701-19.713-3.746Z" fill="#ffd1c4"></path>
    <path d="m990.203 441.553 12.419-13.601c-1.774 1.577-11.236 5.322-11.236 5.322Z" fill="#f1c0ba"></path>
    <path d="M1008.141 430.909s29.371-27.597 13.207-38.636l-.197-.197s6.702-27.203-22.866-31.737-39.424 16.361-39.424 16.361l6.11 1.183s-13.207 10.25-19.12 11.236c0 0 18.726 14.981 51.054 7.885 0 0 2.366.394 1.774 4.534s-4.14 14.98-.394 14.98c3.942 0 12.222-13.995 15.967-5.519 2.563 5.323-10.053 12.616-6.11 19.91Z" fill="#292561"></path>
</svg>