<svg xmlns="http://www.w3.org/2000/svg" xml:space="preserve" width="2048" height="2048" style="shape-rendering:geometricPrecision;text-rendering:geometricPrecision;image-rendering:optimizeQuality;fill-rule:evenodd;clip-rule:evenodd"><defs><style>.fil0,.fil1{fill:#424242}.fil0{fill-rule:nonzero}</style></defs><g id="Layer_x0020_1"><g id="_337030688"><path id="_337031696" class="fil0" d="M398.117 510.232c42.319 0 79.39 25.86 105.116 67.66 22.863 37.152 37.003 87.849 37.003 143.283 0 55.432-14.14 106.129-37.003 143.28-25.726 41.802-62.797 67.661-105.116 67.661s-79.391-25.856-105.116-67.66c-22.861-37.15-37.003-87.847-37.003-143.281 0-55.434 14.14-106.13 37.003-143.282 25.724-41.804 62.797-67.661 105.116-67.661z"/><path id="_337030904" class="fil0" d="M430.118 900.115c0-17.673-14.328-32-32-32-17.674 0-32.002 14.327-32.002 32v605.651c0 17.673 14.328 32 32.001 32s32.001-14.327 32.001-32V900.115z"/><path id="_337030640" class="fil1" d="M1792 1024c0-163.472-66.263-311.473-173.397-418.605-107.132-107.133-255.134-173.397-418.605-173.397-163.472 0-311.473 66.263-418.605 173.397C674.26 712.527 607.996 860.527 607.996 1024s66.263 311.473 173.397 418.605c107.132 107.133 255.134 173.397 418.605 173.397 163.472 0 311.473-66.263 418.605-173.397C1725.736 1335.473 1792 1187.471 1792 1024zm-592.002-348.523c96.237 0 183.369 39.012 246.441 102.083 63.07 63.072 102.083 150.203 102.083 246.441 0 96.237-39.012 183.369-102.083 246.441-63.072 63.07-150.203 102.083-246.441 102.083-96.237 0-183.369-39.012-246.441-102.083-63.07-63.072-102.083-150.203-102.083-246.441 0-96.237 39.012-183.369 102.083-246.441 63.072-63.07 150.203-102.083 246.441-102.083z"/><path id="_337030424" class="fil1" d="M1484.52 1024c0-78.572-31.846-149.704-83.332-201.19-51.486-51.486-122.619-83.332-201.19-83.332s-149.704 31.847-201.19 83.332c-51.485 51.487-83.331 122.619-83.331 201.19 0 78.572 31.846 149.704 83.331 201.19 51.487 51.486 122.62 83.332 201.19 83.332 78.572 0 149.704-31.846 201.19-83.332 51.486-51.487 83.332-122.619 83.332-201.19z"/></g></g><path style="fill:none" d="M0 0h2048v2048H0z"/></svg>