<?xml version="1.0" encoding="utf-8"?>
<!-- Generator: Adobe Illustrator 16.0.0, SVG Export Plug-In . SVG Version: 6.00 Build 0)  -->
<!DOCTYPE svg PUBLIC "-//W3C//DTD SVG 1.1//EN" "http://www.w3.org/Graphics/SVG/1.1/DTD/svg11.dtd">
<svg version="1.1" id="Layer_1" xmlns="http://www.w3.org/2000/svg" xmlns:xlink="http://www.w3.org/1999/xlink" x="0px" y="0px"
	 width="128px" height="128px" viewBox="0 0 128 128" enable-background="new 0 0 128 128" xml:space="preserve">
<g>
	<g>
		<polygon fill="#282D33" points="46.599,128 33.045,128 33.045,124.003 42.603,124.003 42.603,57.568 31.378,45.275 34.33,42.581 
			46.599,56.018 		"/>
	</g>
	<g>
		<polygon fill="#282D33" points="37.564,126.002 33.567,126.002 33.567,60.082 28.179,30.444 32.111,29.729 37.564,59.902 		"/>
	</g>
	<g>
		<path fill="#282D33" d="M45.244,30.846H28.146V0.23h17.097V30.846z M32.143,26.849h9.104V4.228h-9.104V26.849z"/>
	</g>
	<g>
		<rect x="31.894" y="8.881" fill="#282D33" width="13.243" height="3.996"/>
	</g>
	<g>
		<rect x="31.894" y="17.532" fill="#282D33" width="13.243" height="3.997"/>
	</g>
	<g>
		<path fill="#282D33" d="M47.554,30.598l-0.214-3.991c4.031-0.217,7.188-3.476,7.188-7.418V4.512
			c-1.236,0.423-2.345,1.155-3.231,2.153L48.309,4.01c2.08-2.34,4.959-3.724,8.108-3.896L58.524,0v19.188
			C58.524,25.255,53.705,30.266,47.554,30.598z"/>
	</g>
	<g>
		<rect x="35.566" y="57.46" fill="#282D33" width="9.035" height="3.996"/>
	</g>
	<g>
		<rect x="35.566" y="114.909" fill="#282D33" width="9.035" height="3.997"/>
	</g>
	<g>
		<g>
			<polygon fill="#282D33" points="84.255,20.363 83.451,4.333 76.37,4.333 75.622,14.937 71.635,14.654 72.646,0.337 87.252,0.337 
				88.245,20.163 			"/>
		</g>
		<g>
			<path fill="#282D33" d="M99.854,125.537H60.005l4.22-107.36H95.63L99.854,125.537z M64.162,121.541h31.535l-3.91-99.367h-23.72
				L64.162,121.541z"/>
		</g>
		<g>
			<path fill="#282D33" d="M99.773,125.537H60.085v-12.87h39.688V125.537z M64.082,121.541h31.695v-4.877H64.082V121.541z"/>
		</g>
		<g>
			<path fill="#282D33" d="M88.026,105.224H71.832V30.598h16.194V105.224z M75.828,101.228h8.201V34.594h-8.201V101.228z"/>
		</g>
	</g>
</g>
</svg>
